<mxfile host="app.diagrams.net" agent="Mozilla/5.0 (Windows NT 10.0; Win64; x64) AppleWebKit/537.36 (KHTML, like Gecko) Chrome/131.0.0.0 Safari/537.36" version="26.0.6">
  <diagram id="C5RBs43oDa-KdzZeNtuy" name="Page-1">
    <mxGraphModel dx="2267" dy="1175" grid="1" gridSize="10" guides="1" tooltips="1" connect="1" arrows="1" fold="1" page="1" pageScale="1" pageWidth="827" pageHeight="1169" math="0" shadow="0">
      <root>
        <mxCell id="WIyWlLk6GJQsqaUBKTNV-0" />
        <mxCell id="WIyWlLk6GJQsqaUBKTNV-1" parent="WIyWlLk6GJQsqaUBKTNV-0" />
        <mxCell id="1GLhxDmEwpigSI-1pQeY-1" value="" style="rounded=1;whiteSpace=wrap;html=1;" vertex="1" parent="WIyWlLk6GJQsqaUBKTNV-1">
          <mxGeometry x="120" y="410" width="240" height="70" as="geometry" />
        </mxCell>
        <mxCell id="1GLhxDmEwpigSI-1pQeY-5" value="" style="edgeStyle=none;curved=1;rounded=0;orthogonalLoop=1;jettySize=auto;html=1;fontSize=12;startSize=8;endSize=8;" edge="1" parent="WIyWlLk6GJQsqaUBKTNV-1" source="1GLhxDmEwpigSI-1pQeY-2" target="1GLhxDmEwpigSI-1pQeY-4">
          <mxGeometry relative="1" as="geometry" />
        </mxCell>
        <mxCell id="1GLhxDmEwpigSI-1pQeY-2" value="Camera Stream" style="rounded=0;whiteSpace=wrap;html=1;" vertex="1" parent="WIyWlLk6GJQsqaUBKTNV-1">
          <mxGeometry x="130" y="450" width="100" height="20" as="geometry" />
        </mxCell>
        <mxCell id="1GLhxDmEwpigSI-1pQeY-4" value="Frame Capture" style="rounded=0;whiteSpace=wrap;html=1;" vertex="1" parent="WIyWlLk6GJQsqaUBKTNV-1">
          <mxGeometry x="250" y="450" width="100" height="20" as="geometry" />
        </mxCell>
        <mxCell id="1GLhxDmEwpigSI-1pQeY-6" value="Video Input" style="text;html=1;align=center;verticalAlign=middle;whiteSpace=wrap;rounded=0;fontSize=16;" vertex="1" parent="WIyWlLk6GJQsqaUBKTNV-1">
          <mxGeometry x="192.5" y="410" width="105" height="30" as="geometry" />
        </mxCell>
        <mxCell id="1GLhxDmEwpigSI-1pQeY-25" value="" style="group" vertex="1" connectable="0" parent="WIyWlLk6GJQsqaUBKTNV-1">
          <mxGeometry x="399" y="380" width="300" height="130" as="geometry" />
        </mxCell>
        <mxCell id="1GLhxDmEwpigSI-1pQeY-19" value="" style="rounded=1;whiteSpace=wrap;html=1;" vertex="1" parent="1GLhxDmEwpigSI-1pQeY-25">
          <mxGeometry width="300" height="130" as="geometry" />
        </mxCell>
        <mxCell id="1GLhxDmEwpigSI-1pQeY-23" style="edgeStyle=none;curved=1;rounded=0;orthogonalLoop=1;jettySize=auto;html=1;entryX=0;entryY=0.5;entryDx=0;entryDy=0;fontSize=12;startSize=8;endSize=8;" edge="1" parent="1GLhxDmEwpigSI-1pQeY-25" source="1GLhxDmEwpigSI-1pQeY-14" target="1GLhxDmEwpigSI-1pQeY-20">
          <mxGeometry relative="1" as="geometry">
            <Array as="points">
              <mxPoint x="121" y="120" />
            </Array>
          </mxGeometry>
        </mxCell>
        <mxCell id="1GLhxDmEwpigSI-1pQeY-24" style="edgeStyle=none;curved=1;rounded=0;orthogonalLoop=1;jettySize=auto;html=1;entryX=0;entryY=0.5;entryDx=0;entryDy=0;fontSize=12;startSize=8;endSize=8;" edge="1" parent="1GLhxDmEwpigSI-1pQeY-25" source="1GLhxDmEwpigSI-1pQeY-14" target="1GLhxDmEwpigSI-1pQeY-15">
          <mxGeometry relative="1" as="geometry">
            <Array as="points">
              <mxPoint x="131" y="30" />
            </Array>
          </mxGeometry>
        </mxCell>
        <mxCell id="1GLhxDmEwpigSI-1pQeY-14" value="Face Detection" style="rounded=0;whiteSpace=wrap;html=1;" vertex="1" parent="1GLhxDmEwpigSI-1pQeY-25">
          <mxGeometry x="25" y="70" width="100" height="20" as="geometry" />
        </mxCell>
        <mxCell id="1GLhxDmEwpigSI-1pQeY-15" value="Eye Region Detection" style="rounded=0;whiteSpace=wrap;html=1;" vertex="1" parent="1GLhxDmEwpigSI-1pQeY-25">
          <mxGeometry x="161" y="40" width="129" height="20" as="geometry" />
        </mxCell>
        <mxCell id="1GLhxDmEwpigSI-1pQeY-16" value="Face Detection" style="text;html=1;align=center;verticalAlign=middle;whiteSpace=wrap;rounded=0;fontSize=16;" vertex="1" parent="1GLhxDmEwpigSI-1pQeY-25">
          <mxGeometry x="73.75" width="132.5" height="30" as="geometry" />
        </mxCell>
        <mxCell id="1GLhxDmEwpigSI-1pQeY-20" value="Head Pose Estimation" style="rounded=0;whiteSpace=wrap;html=1;" vertex="1" parent="1GLhxDmEwpigSI-1pQeY-25">
          <mxGeometry x="161" y="100" width="129" height="20" as="geometry" />
        </mxCell>
        <mxCell id="1GLhxDmEwpigSI-1pQeY-21" style="edgeStyle=none;curved=1;rounded=0;orthogonalLoop=1;jettySize=auto;html=1;exitX=0.25;exitY=0;exitDx=0;exitDy=0;fontSize=12;startSize=8;endSize=8;" edge="1" parent="1GLhxDmEwpigSI-1pQeY-25" source="1GLhxDmEwpigSI-1pQeY-20" target="1GLhxDmEwpigSI-1pQeY-20">
          <mxGeometry relative="1" as="geometry" />
        </mxCell>
        <mxCell id="1GLhxDmEwpigSI-1pQeY-26" style="edgeStyle=none;curved=1;rounded=0;orthogonalLoop=1;jettySize=auto;html=1;entryX=0;entryY=0.5;entryDx=0;entryDy=0;fontSize=12;startSize=8;endSize=8;" edge="1" parent="WIyWlLk6GJQsqaUBKTNV-1" source="1GLhxDmEwpigSI-1pQeY-4" target="1GLhxDmEwpigSI-1pQeY-14">
          <mxGeometry relative="1" as="geometry" />
        </mxCell>
        <mxCell id="1GLhxDmEwpigSI-1pQeY-28" value="" style="rounded=1;whiteSpace=wrap;html=1;" vertex="1" parent="WIyWlLk6GJQsqaUBKTNV-1">
          <mxGeometry x="740" y="370" width="510" height="160" as="geometry" />
        </mxCell>
        <mxCell id="1GLhxDmEwpigSI-1pQeY-41" style="edgeStyle=none;curved=1;rounded=0;orthogonalLoop=1;jettySize=auto;html=1;entryX=0.25;entryY=0;entryDx=0;entryDy=0;fontSize=12;startSize=8;endSize=8;" edge="1" parent="WIyWlLk6GJQsqaUBKTNV-1" source="1GLhxDmEwpigSI-1pQeY-32" target="1GLhxDmEwpigSI-1pQeY-38">
          <mxGeometry relative="1" as="geometry">
            <Array as="points">
              <mxPoint x="960" y="410" />
            </Array>
          </mxGeometry>
        </mxCell>
        <mxCell id="1GLhxDmEwpigSI-1pQeY-32" value="Eye State Analysis" style="rounded=0;whiteSpace=wrap;html=1;" vertex="1" parent="WIyWlLk6GJQsqaUBKTNV-1">
          <mxGeometry x="760" y="410" width="120" height="20" as="geometry" />
        </mxCell>
        <mxCell id="1GLhxDmEwpigSI-1pQeY-33" value="Analysis" style="text;html=1;align=center;verticalAlign=middle;whiteSpace=wrap;rounded=0;fontSize=16;" vertex="1" parent="WIyWlLk6GJQsqaUBKTNV-1">
          <mxGeometry x="944.37" y="370" width="81.25" height="30" as="geometry" />
        </mxCell>
        <mxCell id="1GLhxDmEwpigSI-1pQeY-42" style="edgeStyle=none;curved=1;rounded=0;orthogonalLoop=1;jettySize=auto;html=1;entryX=0.25;entryY=1;entryDx=0;entryDy=0;fontSize=12;startSize=8;endSize=8;" edge="1" parent="WIyWlLk6GJQsqaUBKTNV-1" source="1GLhxDmEwpigSI-1pQeY-34" target="1GLhxDmEwpigSI-1pQeY-38">
          <mxGeometry relative="1" as="geometry">
            <Array as="points">
              <mxPoint x="950" y="520" />
            </Array>
          </mxGeometry>
        </mxCell>
        <mxCell id="1GLhxDmEwpigSI-1pQeY-34" value="Head Position Analysis" style="rounded=0;whiteSpace=wrap;html=1;" vertex="1" parent="WIyWlLk6GJQsqaUBKTNV-1">
          <mxGeometry x="760" y="490" width="140" height="20" as="geometry" />
        </mxCell>
        <mxCell id="1GLhxDmEwpigSI-1pQeY-35" style="edgeStyle=none;curved=1;rounded=0;orthogonalLoop=1;jettySize=auto;html=1;exitX=0.25;exitY=0;exitDx=0;exitDy=0;fontSize=12;startSize=8;endSize=8;" edge="1" parent="WIyWlLk6GJQsqaUBKTNV-1" source="1GLhxDmEwpigSI-1pQeY-34" target="1GLhxDmEwpigSI-1pQeY-34">
          <mxGeometry relative="1" as="geometry" />
        </mxCell>
        <mxCell id="1GLhxDmEwpigSI-1pQeY-36" style="edgeStyle=none;curved=1;rounded=0;orthogonalLoop=1;jettySize=auto;html=1;entryX=0;entryY=0.5;entryDx=0;entryDy=0;fontSize=12;startSize=8;endSize=8;" edge="1" parent="WIyWlLk6GJQsqaUBKTNV-1" source="1GLhxDmEwpigSI-1pQeY-15" target="1GLhxDmEwpigSI-1pQeY-32">
          <mxGeometry relative="1" as="geometry" />
        </mxCell>
        <mxCell id="1GLhxDmEwpigSI-1pQeY-46" value="" style="edgeStyle=none;curved=1;rounded=0;orthogonalLoop=1;jettySize=auto;html=1;fontSize=12;startSize=8;endSize=8;" edge="1" parent="WIyWlLk6GJQsqaUBKTNV-1" source="1GLhxDmEwpigSI-1pQeY-38" target="1GLhxDmEwpigSI-1pQeY-44">
          <mxGeometry relative="1" as="geometry" />
        </mxCell>
        <mxCell id="1GLhxDmEwpigSI-1pQeY-38" value="Deep Learning Model&lt;div&gt;(ML, CNN)&lt;/div&gt;" style="rounded=0;whiteSpace=wrap;html=1;" vertex="1" parent="WIyWlLk6GJQsqaUBKTNV-1">
          <mxGeometry x="940" y="440" width="140" height="40" as="geometry" />
        </mxCell>
        <mxCell id="1GLhxDmEwpigSI-1pQeY-44" value="Risk Assessment" style="rhombus;whiteSpace=wrap;html=1;" vertex="1" parent="WIyWlLk6GJQsqaUBKTNV-1">
          <mxGeometry x="1120.5" y="405" width="120" height="110" as="geometry" />
        </mxCell>
        <mxCell id="1GLhxDmEwpigSI-1pQeY-47" value="" style="rounded=1;whiteSpace=wrap;html=1;" vertex="1" parent="WIyWlLk6GJQsqaUBKTNV-1">
          <mxGeometry x="120" y="200" width="1280" height="130" as="geometry" />
        </mxCell>
        <mxCell id="1GLhxDmEwpigSI-1pQeY-48" value="Continue Monitoring" style="rounded=0;whiteSpace=wrap;html=1;" vertex="1" parent="WIyWlLk6GJQsqaUBKTNV-1">
          <mxGeometry x="130" y="245" width="150" height="40" as="geometry" />
        </mxCell>
        <mxCell id="1GLhxDmEwpigSI-1pQeY-49" value="" style="endArrow=classic;html=1;rounded=0;fontSize=12;startSize=8;endSize=8;curved=1;exitX=1;exitY=0.75;exitDx=0;exitDy=0;entryX=0.5;entryY=0;entryDx=0;entryDy=0;" edge="1" parent="WIyWlLk6GJQsqaUBKTNV-1" source="1GLhxDmEwpigSI-1pQeY-48" target="1GLhxDmEwpigSI-1pQeY-4">
          <mxGeometry width="50" height="50" relative="1" as="geometry">
            <mxPoint x="400" y="400" as="sourcePoint" />
            <mxPoint x="450" y="350" as="targetPoint" />
            <Array as="points">
              <mxPoint x="330" y="360" />
            </Array>
          </mxGeometry>
        </mxCell>
        <mxCell id="1GLhxDmEwpigSI-1pQeY-51" value="" style="endArrow=classic;html=1;rounded=0;fontSize=12;startSize=8;endSize=8;curved=1;entryX=1;entryY=0.25;entryDx=0;entryDy=0;exitX=0.5;exitY=0;exitDx=0;exitDy=0;" edge="1" parent="WIyWlLk6GJQsqaUBKTNV-1" source="1GLhxDmEwpigSI-1pQeY-44" target="1GLhxDmEwpigSI-1pQeY-48">
          <mxGeometry width="50" height="50" relative="1" as="geometry">
            <mxPoint x="430" y="330" as="sourcePoint" />
            <mxPoint x="480" y="280" as="targetPoint" />
            <Array as="points">
              <mxPoint x="1180" y="300" />
              <mxPoint x="830" y="230" />
            </Array>
          </mxGeometry>
        </mxCell>
        <mxCell id="1GLhxDmEwpigSI-1pQeY-53" value="Sound Alert" style="rounded=0;whiteSpace=wrap;html=1;" vertex="1" parent="WIyWlLk6GJQsqaUBKTNV-1">
          <mxGeometry x="1241" y="210" width="140" height="40" as="geometry" />
        </mxCell>
        <mxCell id="1GLhxDmEwpigSI-1pQeY-54" value="Notification" style="rounded=0;whiteSpace=wrap;html=1;" vertex="1" parent="WIyWlLk6GJQsqaUBKTNV-1">
          <mxGeometry x="1241" y="270" width="140" height="40" as="geometry" />
        </mxCell>
        <mxCell id="1GLhxDmEwpigSI-1pQeY-55" value="" style="endArrow=classic;html=1;rounded=0;fontSize=12;startSize=8;endSize=8;curved=1;entryX=0;entryY=0.5;entryDx=0;entryDy=0;exitX=1;exitY=0;exitDx=0;exitDy=0;" edge="1" parent="WIyWlLk6GJQsqaUBKTNV-1" source="1GLhxDmEwpigSI-1pQeY-44" target="1GLhxDmEwpigSI-1pQeY-53">
          <mxGeometry width="50" height="50" relative="1" as="geometry">
            <mxPoint x="1210" y="420" as="sourcePoint" />
            <mxPoint x="1260" y="370" as="targetPoint" />
            <Array as="points">
              <mxPoint x="1181" y="310" />
            </Array>
          </mxGeometry>
        </mxCell>
        <mxCell id="1GLhxDmEwpigSI-1pQeY-56" value="" style="endArrow=classic;html=1;rounded=0;fontSize=12;startSize=8;endSize=8;curved=1;exitX=1;exitY=0.5;exitDx=0;exitDy=0;entryX=0.25;entryY=1;entryDx=0;entryDy=0;" edge="1" parent="WIyWlLk6GJQsqaUBKTNV-1" source="1GLhxDmEwpigSI-1pQeY-44" target="1GLhxDmEwpigSI-1pQeY-54">
          <mxGeometry width="50" height="50" relative="1" as="geometry">
            <mxPoint x="1286" y="430" as="sourcePoint" />
            <mxPoint x="1336" y="380" as="targetPoint" />
            <Array as="points">
              <mxPoint x="1210" y="350" />
            </Array>
          </mxGeometry>
        </mxCell>
        <mxCell id="1GLhxDmEwpigSI-1pQeY-57" value="Alert System" style="text;html=1;align=center;verticalAlign=middle;whiteSpace=wrap;rounded=0;fontSize=16;" vertex="1" parent="WIyWlLk6GJQsqaUBKTNV-1">
          <mxGeometry x="699.6899999999999" y="200" width="120.62" height="30" as="geometry" />
        </mxCell>
        <mxCell id="1GLhxDmEwpigSI-1pQeY-58" style="edgeStyle=none;curved=1;rounded=0;orthogonalLoop=1;jettySize=auto;html=1;entryX=0;entryY=0.5;entryDx=0;entryDy=0;fontSize=12;startSize=8;endSize=8;" edge="1" parent="WIyWlLk6GJQsqaUBKTNV-1" source="1GLhxDmEwpigSI-1pQeY-20" target="1GLhxDmEwpigSI-1pQeY-34">
          <mxGeometry relative="1" as="geometry" />
        </mxCell>
      </root>
    </mxGraphModel>
  </diagram>
</mxfile>
